<?xml version="1.0" encoding="UTF-8"?><svg id="_レイヤー_2" xmlns="http://www.w3.org/2000/svg" viewBox="0 0 200.89 368.02"><defs><style>.cls-1,.cls-2{fill:#c7b299;}.cls-1,.cls-3{stroke:#000;stroke-miterlimit:10;stroke-width:4px;}.cls-2,.cls-4,.cls-5,.cls-6,.cls-7{stroke-width:0px;}.cls-3{fill:none;}.cls-4{fill:#d7b3b3;}.cls-6{fill:#998675;}.cls-7{fill:#fff;}</style></defs><g id="_猫上"><path class="cls-2" d="m107.42,66.8c-14.72,35.05,1.69,42.51,1.69,42.51l-13.42,15.16s-24.72-38.47-11.79-71.67C96.83,19.61,115.42,2.14,126.88.33c13.72-2.17,23.35,6.68,19.67,18.39-4.51,14.34-32.22,31.66-39.12,48.08Z"/><path class="cls-6" d="m177.39,182.02c0-85.5-42-85-82-85-37,0-80,7.5-78,90,1.36,56.04,30.53,91,83,91s77-39.94,77-96Z"/><ellipse class="cls-2" cx="97.89" cy="293.52" rx="90.5" ry="74.5"/><ellipse class="cls-5" cx="67.74" cy="321.56" rx="13" ry="10.54"/><ellipse class="cls-5" cx="133.74" cy="321.28" rx="13" ry="10.54"/><line class="cls-1" x1="39.12" y1="330.08" x2=".36" y2="334.47"/><line class="cls-1" x1="39.36" y1="321.72" x2=".39" y2="314.02"/><line class="cls-1" x1="164.17" y1="319.33" x2="200.39" y2="310.02"/><line class="cls-1" x1="159.12" y1="327.08" x2="199.39" y2="333.02"/><path class="cls-2" d="m11.88,248.12c5.9-.48,41.25,11.58,49.01,15.03s14.66,9.48,4.4,16.92l-38.21,28.26c-4.79,3.55-4.98,3.1-9.29-2.94,0,0-16.38-35.35-16.38-44.83s4.57-11.96,10.48-12.45Z"/><path class="cls-2" d="m182.22,248.03c-5.9-.48-41.25,11.58-49.01,15.03s-14.66,9.48-4.4,16.92l38.21,28.26c4.79,3.55,4.98,3.1,9.29-2.94,0,0,16.38-35.35,16.38-44.83s-4.57-11.96-10.48-12.45Z"/><path class="cls-4" d="m17.96,256.26c4.41-.36,30.84,8.57,36.64,11.13,5.8,2.55,10.96,7.02,3.29,12.52l-28.57,20.92c-3.58,2.62-3.72,2.29-6.95-2.17,0,0-12.25-26.16-12.25-33.18s3.42-8.85,7.83-9.21Z"/><path class="cls-4" d="m176.22,255.15s-35.25,10.51-36.64,11.13c-5.8,2.55-10.96,7.02-3.29,12.52l28.57,20.92c3.58,2.62,3.72,2.29,6.95-2.17,0,0,12.25-26.16,12.25-33.18,0-7.02-3.42-8.85-7.83-9.21Z"/><path class="cls-2" d="m35.37,212.05c-1.48-6.76,27.56-21.03,60.65-21.03,36.24,0,68.78,13.52,65.08,22.53-1.29,3.14-3.7,6.01-8.14,4.51-9.54-3.23-23.59-15.02-56.95-15.02s-37.72,11.27-51.77,17.28c-7.5,3.21-7.72-2.96-8.88-8.26Z"/><path class="cls-2" d="m34.41,184.61c-1.48-6.76,27.56-21.03,60.65-21.03,36.24,0,68.78,13.52,65.08,22.53-1.29,3.14-3.7,6.01-8.14,4.51-9.54-3.23-23.59-15.02-56.95-15.02s-37.72,11.27-51.77,17.28c-7.5,3.21-7.72-2.96-8.88-8.26Z"/><path class="cls-2" d="m35.41,159.61c-1.48-6.76,27.56-21.03,60.65-21.03,36.24,0,68.78,13.52,65.08,22.53-1.29,3.14-3.7,6.01-8.14,4.51-9.54-3.23-23.59-15.02-56.95-15.02s-37.72,11.27-51.77,17.28c-7.5,3.21-7.72-2.96-8.88-8.26Z"/><path class="cls-7" d="m83.39,349.02s-2.53,7-4.38,7-2.63-7-2.63-7h7Z"/><path class="cls-7" d="m115.11,349.02s2.53,7,4.38,7,2.63-7,2.63-7h-7Z"/><path class="cls-3" d="m125.39,337.02s1.48,11.98-13,12c-12.56.02-12-12-13-12-1.69,0,.56,11.95-17.18,11.98-9.82.02-10.7-9.69-10.82-11.98"/></g></svg>