<?xml version="1.0" encoding="UTF-8"?><svg id="_レイヤー_2" xmlns="http://www.w3.org/2000/svg" viewBox="0 0 319.88 201.65"><defs><style>.cls-1,.cls-2{fill:#c7b299;}.cls-1,.cls-3{stroke:#000;stroke-miterlimit:10;stroke-width:4px;}.cls-2,.cls-4,.cls-5,.cls-6,.cls-7{stroke-width:0px;}.cls-3{fill:none;}.cls-4{fill:#d7b3b3;}.cls-6{fill:#998675;}.cls-7{fill:#fff;}</style></defs><g id="_猫"><path class="cls-2" d="m27,87.55c-1,38,17,39,17,39l-7,19S0,118.67,0,83.05,10.98,24.4,21,18.55c12-7,24.18-2.25,25,10,1,15-18.53,41.19-19,59Z"/><path class="cls-6" d="m235,120.55c-19,74-56.98,81-146,81-37,0-55-26.39-55-54,0-24,24-61,55-61,174,0,152.87,7.25,146,34Z"/><path class="cls-2" d="m309,118.55c0,44.18-45.61,65.5-102.5,65.5s-102.5-15.32-102.5-59.5c0-18.9,8.35-40.02,22.35-58,18.74-24.06,47.6-42.5,80.15-42.5,56.89,0,102.5,50.32,102.5,94.5Z"/><ellipse class="cls-5" cx="195" cy="94.73" rx="13" ry="12.82"/><ellipse class="cls-5" cx="269.25" cy="94.16" rx="13" ry="12.82"/><line class="cls-1" x1="160" y1="114.55" x2="121.25" y2="110.16"/><line class="cls-1" x1="160.25" y1="128.66" x2="127" y2="135.55"/><path class="cls-2" d="m110.15.11c6.85-.56,47.85,13.44,56.85,17.44s17,11,5.1,19.63l-44.32,32.78c-5.56,4.11-5.78,3.59-10.78-3.41,0,0-19-41-19-52S103.3.68,110.15.11Z"/><line class="cls-1" x1="314" y1="107.55" x2="280.03" y2="112.77"/><line class="cls-1" x1="314" y1="130.55" x2="280.03" y2="123.77"/><path class="cls-2" d="m307.73.02c-6.85-.56-47.85,13.44-56.85,17.44-9,4-17,11-5.1,19.63l44.32,32.78c5.56,4.11,5.78,3.59,10.78-3.41,0,0,19-41,19-52S314.57.58,307.73.02Z"/><path class="cls-4" d="m117.2,9.56c5.12-.42,35.77,9.95,42.5,12.91s12.71,8.14,3.81,14.53l-33.14,24.26c-4.16,3.04-4.32,2.66-8.06-2.52,0,0-14.21-30.35-14.21-38.49s3.96-10.27,9.09-10.69Z"/><path class="cls-6" d="m159.88,179.26c-5.7-12.1-4.1-20.11-.88-20.71,4.42-.82,16.53,11.62,15.61,10.69-1.75-1.77-1.61-10.69.39-11.69,2.31-1.15,10.63,8.73,15.31,9.18,5.06.49,12.69-10.18,15.71-10.65,3.96-.62,10.98,10.47,12.76,10.65,3.21.32,18.85-11.45,22.22-10.18,2.74,1.03,0,10,1.34,11.43,3.54,3.78,20.66-10.43,23.66-8.43,1.18.78-1.94,4.97-3,12-1.75,11.56-5,25-5,25h-84s-10.23-9.03-14.12-17.29Z"/><path class="cls-4" d="m300.77,8.27s-40.89,12.2-42.5,12.91c-6.73,2.96-12.71,8.14-3.81,14.53l33.14,24.26c4.16,3.04,4.32,2.66,8.06-2.52,0,0,14.21-30.35,14.21-38.49s-3.96-10.27-9.09-10.69Z"/><path class="cls-2" d="m169.89,201.55h-25.79c-8.11,0-12.11,2-12.11-12.11v-6.79c0-6.69,5.42-12.11,12.11-12.11h25.79c6.69,0,12.11,5.42,12.11,12.11v6.79c0,12.11-2,12.11-12.11,12.11Z"/><path class="cls-2" d="m74,94.55c-17.6,17.9-12.5,41-8,37,2.77-2.46,5.85-16.82,12-29,7.19-14.24,17-16,17-16h-4s-8.65-.53-17,8Z"/><path class="cls-2" d="m90.95,94.55c-17.6,17.9-12.5,41-8,37,2.77-2.46,5.85-16.82,12-29,7.19-14.24,17-16,17-16h-4s-8.65-.53-17,8Z"/><path class="cls-2" d="m284.89,201.55h-25.79c-8.11,0-12.11,2-12.11-12.11v-6.79c0-6.69,5.42-12.11,12.11-12.11h25.79c6.69,0,12.11,5.42,12.11,12.11v6.79c0,12.11-2,12.11-12.11,12.11Z"/><path class="cls-7" d="m210,120.55s2.89,8.99,5,9,3-9,3-9h-8Z"/><path class="cls-7" d="m252,118.55s3.48,9.99,5,10,3-10,3-10h-8Z"/><path class="cls-3" d="m262,109.55s-.86,12.1-13,11c-11-1-11-11-12-11-1.69,0,0,12-17.74,12-12.7,0-13.07-9.7-13.19-11.99"/></g></svg>