<?xml version="1.0" encoding="UTF-8"?><svg id="_レイヤー_2" xmlns="http://www.w3.org/2000/svg" viewBox="0 0 292 216.08"><defs><style>.cls-1{fill:#ffbb1e;}.cls-1,.cls-2,.cls-3,.cls-4{stroke-width:0px;}.cls-2{fill:#cb9d70;}.cls-3{fill:#fef549;}.cls-4{fill:#fed449;}</style></defs><g id="_チーズ"><path class="cls-4" d="m238,202.08c11.33,0,21.39,5.39,27.79,13.73l26.21.27-.55-138.5L.46,80.56l.11,28.13c1.41-.38,2.89-.6,4.42-.6,9.39,0,17,7.61,17,17s-7.61,17-17,17c-1.48,0-2.92-.21-4.29-.57l.29,71.57,209.66,2.16c6.41-8.02,16.27-13.16,27.34-13.16Z"/><path class="cls-2" d="m203,154.08c0-16.02,12.98-29,29-29,5.77,0,11.14,1.69,15.65,4.59-5.58-8.2-14.98-13.59-25.65-13.59-17.12,0-31,13.88-31,31,0,14.51,9.97,26.68,23.43,30.06-6.94-5.3-11.43-13.66-11.43-23.06Z"/><path class="cls-1" d="m253,147.08c0-6.45-1.97-12.44-5.35-17.41-4.52-2.9-9.89-4.59-15.65-4.59-16.02,0-29,12.98-29,29,0,9.41,4.48,17.77,11.43,23.06,2.42.61,4.96.94,7.57.94,17.12,0,31-13.88,31-31Z"/><path class="cls-3" d="m273.66,30.56C242.2-5.66,188.73.38,188.73.38l-36.95,15.96c.14,1.23.23,2.48.23,3.75,0,17.67-14.33,32-32,32-9.84,0-18.65-4.45-24.52-11.44L0,81.87l291.85-2.79s2.26-24.96-18.2-48.52Z"/><path class="cls-2" d="m82.33,167.74c0-9.5,7.7-17.21,17.21-17.21,3.42,0,6.61,1,9.29,2.73-3.31-4.87-8.89-8.07-15.22-8.07-10.16,0-18.39,8.24-18.39,18.39,0,8.61,5.91,15.83,13.9,17.84-4.12-3.14-6.78-8.1-6.78-13.69Z"/><path class="cls-1" d="m112,163.59c0-3.83-1.17-7.38-3.17-10.33-2.68-1.72-5.87-2.73-9.29-2.73-9.5,0-17.21,7.7-17.21,17.21,0,5.58,2.66,10.54,6.78,13.69,1.44.36,2.94.56,4.49.56,10.16,0,18.39-8.24,18.39-18.39Z"/><path class="cls-2" d="m49.09,136.01c0-6.06,4.91-10.97,10.97-10.97,2.18,0,4.21.64,5.92,1.74-2.11-3.1-5.67-5.14-9.7-5.14-6.48,0-11.73,5.25-11.73,11.73,0,5.49,3.77,10.09,8.86,11.37-2.63-2-4.32-5.17-4.32-8.72Z"/><path class="cls-1" d="m68.01,133.36c0-2.44-.75-4.71-2.02-6.58-1.71-1.1-3.74-1.74-5.92-1.74-6.06,0-10.97,4.91-10.97,10.97,0,3.56,1.7,6.72,4.32,8.72.92.23,1.88.35,2.86.35,6.48,0,11.73-5.25,11.73-11.73Z"/></g></svg>