<?xml version="1.0" encoding="UTF-8"?><svg id="_レイヤー_2" xmlns="http://www.w3.org/2000/svg" viewBox="0 0 354.4 267.45"><defs><style>.cls-1{stroke-width:4px;}.cls-1,.cls-2,.cls-3{fill:none;stroke:#000;stroke-miterlimit:10;}.cls-4{fill:#d7b3b3;}.cls-4,.cls-5,.cls-6,.cls-7{stroke-width:0px;}.cls-5{fill:#666;}.cls-7{fill:#b3b3b3;}.cls-2{stroke-width:3px;}.cls-3{stroke-width:7px;}</style></defs><g id="_ねずみ"><path class="cls-3" d="m39.51,142.55c10.56-3.77,36.62-17.4,36.62-40.26,0-10.7-3.46-24.54-21.13-24.54-19.72,0-15.49,33.34-15.49,33.34,0,0-1.41-32.09-16.2-32.09-16.44,0-20.49,17.42-19.72,27.05,2.82,35.23,45.04,95.19,91.04,90.19"/><path class="cls-7" d="m347.13,179.75c0,64.62-81.38,60-146,60s-117-22.38-117-87,52.38-101,117-101,146,63.38,146,128Z"/><path class="cls-5" d="m244.41.02c48.34-1.1,83.36,48.59,81.69,91.1-1.06,27.05-16.79,46.43-23.93,54.19-8.29,5.94-16.59,11.88-24.88,17.82-9.97,2.15-32.81,5.54-56.66-5.41-31.86-14.63-64.62-52.69-54.04-88.15C175.33,29.28,208.62.83,244.41.02Z"/><path class="cls-2" d="m317.63,194.25c9,19,22,14,22,14"/><circle class="cls-6" cx="309.88" cy="183" r="7.25"/><path class="cls-6" d="m354.4,188.39c0,4-4.27,5.36-8.27,5.36s-8-1-8-5,5-7,9-7,7.27,2.64,7.27,6.64Z"/><path class="cls-4" d="m234.13,27.45c35.51-8.24,69,23.06,74.31,54.69,3.38,20.13-5.69,42.75-9.77,49.57-5.21,5.66-7.21,9.99-14.93,13.57-7.03,3.12-23.63,6.66-42.92,2.24-25.77-5.9-55.8-28.97-53.44-56.76.25-31.09,20.45-57.21,46.75-63.31Z"/><rect class="cls-7" x="268.13" y="222.75" width="29" height="44" rx="10.42" ry="10.42" transform="translate(-63.19 102.65) rotate(-18.55)"/><rect class="cls-7" x="131.2" y="222.34" width="29" height="44" rx="10.42" ry="10.42" transform="translate(124.72 -39.37) rotate(26.58)"/><line class="cls-1" x1="288.13" y1="198.75" x2="262.13" y2="203.75"/><line class="cls-1" x1="285.13" y1="184.75" x2="253.13" y2="182.75"/></g></svg>