<?xml version="1.0" encoding="UTF-8"?><svg id="_レイヤー_2" xmlns="http://www.w3.org/2000/svg" viewBox="0 0 354.4 267.45"><defs><style>.cls-1{stroke-width:4px;}.cls-1,.cls-2,.cls-3{fill:none;stroke:#000;stroke-miterlimit:10;}.cls-4{fill:#d7b3b3;}.cls-4,.cls-5,.cls-6,.cls-7{stroke-width:0px;}.cls-5{fill:#666;}.cls-7{fill:#b3b3b3;}.cls-2{stroke-width:3px;}.cls-3{stroke-width:7px;}</style></defs><g id="_ねずみ"><path class="cls-3" d="m314.89,142.55c-10.56-3.77-36.62-17.4-36.62-40.26,0-10.7,3.46-24.54,21.13-24.54,19.72,0,15.49,33.34,15.49,33.34,0,0,1.41-32.09,16.2-32.09,16.44,0,20.49,17.42,19.72,27.05-2.82,35.23-45.04,95.19-91.04,90.19"/><path class="cls-7" d="m7.27,179.75c0,64.62,81.38,60,146,60,64.62,0,117-22.38,117-87,0-64.62-52.38-101-117-101S7.27,115.13,7.27,179.75Z"/><path class="cls-5" d="m109.98.02C61.65-1.08,26.63,48.61,28.29,91.12c1.06,27.05,16.79,46.43,23.93,54.19,8.29,5.94,16.59,11.88,24.88,17.82,9.97,2.15,32.81,5.54,56.66-5.41,31.86-14.63,64.62-52.69,54.04-88.15C179.07,29.28,145.78.83,109.98.02Z"/><path class="cls-2" d="m36.77,194.25c-9,19-22,14-22,14"/><circle class="cls-6" cx="44.52" cy="183" r="7.25"/><path class="cls-6" d="m0,188.39c0,4,4.27,5.36,8.27,5.36,4,0,8-1,8-5s-5-7-9-7c-4,0-7.27,2.64-7.27,6.64Z"/><path class="cls-4" d="m120.26,27.45c-35.51-8.24-69,23.06-74.31,54.69-3.38,20.13,5.69,42.75,9.77,49.57,5.21,5.66,7.21,9.99,14.93,13.57,7.03,3.12,23.63,6.66,42.92,2.24,25.77-5.9,55.8-28.97,53.44-56.76-.25-31.09-20.45-57.21-46.75-63.31Z"/><rect class="cls-7" x="57.27" y="222.75" width="29" height="44" rx="10.42" ry="10.42" transform="translate(61.93 499.61) rotate(-161.45)"/><rect class="cls-7" x="194.2" y="222.34" width="29" height="44" rx="10.42" ry="10.42" transform="translate(504.67 369.49) rotate(153.42)"/><line class="cls-1" x1="66.27" y1="198.75" x2="92.27" y2="203.75"/><line class="cls-1" x1="69.27" y1="184.75" x2="101.27" y2="182.75"/></g></svg>