<?xml version="1.0" encoding="UTF-8"?><svg id="_レイヤー_2" xmlns="http://www.w3.org/2000/svg" viewBox="0 0 354.4 473.97"><defs><style>.cls-1{stroke-width:4px;}.cls-1,.cls-2,.cls-3,.cls-4,.cls-5,.cls-6{stroke:#000;stroke-miterlimit:10;}.cls-1,.cls-3,.cls-5,.cls-6{fill:none;}.cls-2{stroke-width:6px;}.cls-2,.cls-4{fill:#fff;}.cls-7{fill:#d7b3b3;}.cls-7,.cls-8,.cls-9,.cls-10{stroke-width:0px;}.cls-8{fill:#666;}.cls-10{fill:#b3b3b3;}.cls-3{stroke-width:3px;}.cls-4,.cls-6{stroke-width:7px;}.cls-5{stroke-width:5px;}</style></defs><g id="_エモート"><g id="skull"><path class="cls-6" d="m314.89,331.42c-10.56,3.77-36.62,17.4-36.62,40.26,0,10.7,3.46,24.54,21.13,24.54,19.72,0,15.49-33.34,15.49-33.34,0,0,1.41,32.09,16.2,32.09,16.44,0,20.49-17.42,19.72-27.05-2.82-35.23-45.04-95.19-91.04-90.19"/><path class="cls-10" d="m7.27,294.22c0-64.62,81.38-60,146-60s117,22.38,117,87-52.38,101-117,101S7.27,358.84,7.27,294.22Z"/><path class="cls-8" d="m109.98,473.95c-48.34,1.1-83.36-48.59-81.69-91.1,1.06-27.05,16.79-46.43,23.93-54.19,8.29-5.94,16.59-11.88,24.88-17.82,9.97-2.15,32.81-5.54,56.66,5.41,31.86,14.63,64.62,52.69,54.04,88.15-8.73,40.3-42.02,68.75-77.81,69.56Z"/><path class="cls-3" d="m37.98,269.98c-17.11,12.22-26.03,1.52-26.03,1.52"/><path class="cls-9" d="m0,285.58c0-4,4.27-5.36,8.27-5.36s8,1,8,5-5,7-9,7-7.27-2.64-7.27-6.64Z"/><path class="cls-7" d="m120.26,446.52c-35.51,8.24-69-23.06-74.31-54.69-3.38-20.13,5.69-42.75,9.77-49.57,5.21-5.66,7.21-9.99,14.93-13.57,7.03-3.12,23.63-6.66,42.92-2.24,25.77,5.9,55.8,28.97,53.44,56.76-.25,31.09-20.45,57.21-46.75,63.31Z"/><rect class="cls-10" x="57.27" y="207.22" width="29" height="44" rx="10.42" ry="10.42" transform="translate(212.75 423.7) rotate(161.45)"/><rect class="cls-10" x="194.2" y="207.63" width="29" height="44" rx="10.42" ry="10.42" transform="translate(292.61 528.36) rotate(-153.42)"/><line class="cls-1" x1="66.27" y1="275.22" x2="92.27" y2="270.22"/><line class="cls-1" x1="69.27" y1="289.22" x2="101.27" y2="291.22"/><line class="cls-5" x1="53.81" y1="302.12" x2="32.68" y2="280.99"/><line class="cls-5" x1="54" y1="281.37" x2="32.87" y2="302.5"/><path class="cls-4" d="m170.09,154.99l-9.62.35-19.02,40.16-19.02-40.16-9.62-.35c-26.01,0-47.1-21.09-47.1-47.1v-57.28c0-26.01,21.09-47.1,47.1-47.1h57.28c26.01,0,47.1,21.09,47.1,47.1v57.28c0,26.01-21.09,47.1-47.1,47.1Z"/><path class="cls-2" d="m189.01,81.54c0-26.27-21.29-42.34-47.56-42.34s-47.56,16.07-47.56,42.34c0,13.03,5.25,21.41,13.74,26.55-.98,1.44-1.56,3.18-1.56,5.06,0,4.97,4.02,8.99,8.99,8.99,6.22,0,8.75-3.67,8.97-8.33.03,0,.06.01.09.02-.04.35-.07.7-.07,1.06,0,4.97,4.02,8.99,8.99,8.99s8.82-3.87,8.98-8.7c0,0,.02,0,.03,0,.15,4.83,4.11,8.71,8.98,8.71s8.99-4.02,8.99-8.99c0-.43-.04-.85-.1-1.26.04,0,.08-.01.11-.02.15,4.75,2.66,8.54,8.98,8.54,4.97,0,8.99-4.02,8.99-8.99,0-2.1-.73-4.03-1.93-5.56,8.03-5.17,12.95-13.43,12.95-26.05Z"/><path class="cls-9" d="m141.53,103.94c.67-1.62-.33-7.51-.33-7.51,0,0-4.86,3.47-5.53,5.09s.1,3.47,1.72,4.14,3.47-.1,4.14-1.72Z"/><path class="cls-9" d="m146.95,101.27c-.74-1.59-5.74-4.85-5.74-4.85,0,0-.75,5.93-.02,7.52s2.62,2.28,4.21,1.55,2.28-2.62,1.55-4.21Z"/><line class="cls-5" x1="109.37" y1="75.88" x2="131.27" y2="97.78"/><line class="cls-5" x1="109.17" y1="97.4" x2="131.08" y2="75.49"/><line class="cls-5" x1="151.16" y1="77.3" x2="170.22" y2="96.35"/><line class="cls-5" x1="150.99" y1="96.02" x2="170.05" y2="76.96"/></g></g></svg>