<?xml version="1.0" encoding="UTF-8"?><svg id="_レイヤー_2" xmlns="http://www.w3.org/2000/svg" viewBox="0 0 250.04 373.93"><defs><style>.cls-1{stroke-width:4px;}.cls-1,.cls-2{fill:none;stroke:#000;stroke-miterlimit:10;}.cls-3{fill:#d7b3b3;}.cls-3,.cls-4,.cls-5,.cls-6{stroke-width:0px;}.cls-4{fill:#666;}.cls-6{fill:#b3b3b3;}.cls-2{stroke-width:7px;}</style></defs><g id="_ねずみ上"><path class="cls-2" d="m121.61,304.27c-11.14-1.35-40.54-.82-50.77,19.62-4.79,9.56-7.88,23.49,7.92,31.4,17.64,8.82,28.77-22.89,28.77-22.89,0,0-13.1,29.32.13,35.94,14.7,7.36,26.12-6.41,29.74-15.37,13.24-32.77,2.31-105.28-41.06-121.39"/><path class="cls-6" d="m228.08,137.48c0,72.27-46.49,120.52-104.48,120.52S18.08,209.76,18.08,137.48c0-48.1,47.01-130.86,105-130.86s105,83.79,105,130.86Z"/><circle class="cls-5" cx="97.5" cy="30.68" r="7.25"/><circle class="cls-5" cx="151.5" cy="30.68" r="7.25"/><path class="cls-5" d="m131.08,3c0,5-2.91,4-6.5,4s-6.5,1-6.5-4c0-2,2.41-3,6-3s7,1,7,3Z"/><line class="cls-1" x1="77.57" y1="36.47" x2="46.08" y2="42"/><line class="cls-1" x1="77.57" y1="26.47" x2="45.57" y2="24.47"/><line class="cls-1" x1="168.08" y1="34.21" x2="199.57" y2="39.73"/><line class="cls-1" x1="168.08" y1="24.21" x2="200.08" y2="22.21"/><path class="cls-4" d="m187.07,170.68c-35.31-1.87-58.1-40.06-54.53-70.97,2.27-19.67,14.82-32.93,20.46-38.2,6.38-3.87,12.76-7.75,19.13-11.62,7.39-1.02,24.24-2.23,41.02,7.08,22.43,12.44,44.21,42.01,34.53,67.28-8.6,28.91-34.46,47.81-60.61,46.42Z"/><path class="cls-4" d="m5.72,138.1c-16.38-30.33,4.83-68.55,33.23-81.16,18.07-8.03,35.86-4.27,43.26-2.24,6.58,3.35,13.16,6.71,19.74,10.06,4.64,5.64,14.26,19.05,14.81,37.71.74,24.93-13.59,57.98-40.25,62.66-29.23,7.42-58.66-4.57-70.79-27.03Z"/><path class="cls-3" d="m178.9,158.99c-28.91-8.26-41.71-43.3-33.85-67.46,5-15.37,19.98-27.57,25.47-30.72,5.89-1.89,8.95-4.12,15.9-3.57,6.27.59,19.67,4.68,32.09,15.36,16.58,14.28,29.91,42.21,17.89,60.67-11.7,21.59-36.09,31.83-57.5,25.72Z"/><path class="cls-3" d="m9.62,119.07c-3.77-29.78,23.42-55.25,48.72-57.5,16.1-1.43,33.2,7.54,38.26,11.36,4.06,4.67,7.31,6.6,9.53,13.2,1.92,5.99,3.43,19.89-1.52,35.47-6.62,20.81-27.06,43.99-48.76,40.18-24.45-2.29-43.45-20.66-46.24-42.71Z"/></g></svg>