<?xml version="1.0" encoding="UTF-8"?><svg id="_レイヤー_2" xmlns="http://www.w3.org/2000/svg" viewBox="0 0 222 284.18"><defs><style>.cls-1{fill:#fff;stroke:#000;stroke-miterlimit:10;stroke-width:7px;}.cls-2{fill:#ffa3d2;stroke-width:0px;}</style></defs><g id="_エモート"><path class="cls-1" d="m151.65,218.5l-13.65.5-27,57-27-57-13.65-.5c-36.92,0-66.85-29.93-66.85-66.85v-81.29C3.5,33.43,33.43,3.5,70.35,3.5h81.29c36.92,0,66.85,29.93,66.85,66.85v81.29c0,36.92-29.93,66.85-66.85,66.85Z"/><path class="cls-2" d="m113.33,84.71c8.11,19.64-4.02,91.04-4.02,91.04,0,0-58.98-42.04-67.09-61.67-8.11-19.64,1.24-42.13,20.87-50.24,19.64-8.11,42.13,1.24,50.24,20.87Z"/><path class="cls-2" d="m179.13,117.09c-8.92,19.28-69.61,58.81-69.61,58.81,0,0-9.13-71.85-.21-91.13,8.92-19.28,31.79-27.67,51.07-18.75,19.28,8.92,27.67,31.79,18.75,51.07Z"/></g></svg>