<?xml version="1.0" encoding="UTF-8"?><svg id="_レイヤー_2" xmlns="http://www.w3.org/2000/svg" viewBox="0 0 222 284.18"><defs><style>.cls-1{stroke-width:6px;}.cls-1,.cls-2{fill:#fff;}.cls-1,.cls-2,.cls-3{stroke:#000;stroke-miterlimit:10;}.cls-4{stroke-width:0px;}.cls-2{stroke-width:7px;}.cls-3{fill:none;stroke-width:5px;}</style></defs><g id="_エモート"><g id="skull"><path class="cls-2" d="m151.65,218.5l-13.65.5-27,57-27-57-13.65-.5c-36.92,0-66.85-29.93-66.85-66.85v-81.29C3.5,33.43,33.43,3.5,70.35,3.5h81.29c36.92,0,66.85,29.93,66.85,66.85v81.29c0,36.92-29.93,66.85-66.85,66.85Z"/><path class="cls-1" d="m178,114.26c0-37.28-30.22-60.09-67.5-60.09s-67.5,22.81-67.5,60.09c0,18.5,7.45,30.39,19.5,37.68-1.4,2.05-2.21,4.52-2.21,7.18,0,7.05,5.71,12.76,12.76,12.76,8.83,0,12.42-5.21,12.73-11.82.04,0,.08.02.13.02-.06.5-.1,1-.1,1.51,0,7.05,5.71,12.76,12.76,12.76s12.52-5.5,12.74-12.35c.01,0,.03,0,.04,0,.22,6.86,5.83,12.36,12.74,12.36s12.76-5.71,12.76-12.76c0-.61-.06-1.21-.14-1.79.05-.01.11-.02.16-.03.21,6.74,3.78,12.11,12.74,12.11,7.05,0,12.76-5.71,12.76-12.76,0-2.98-1.03-5.72-2.75-7.89,11.39-7.34,18.39-19.05,18.39-36.97Z"/><path class="cls-4" d="m110.61,146.05c.95-2.3-.47-10.66-.47-10.66,0,0-6.9,4.92-7.85,7.22s.14,4.93,2.44,5.88,4.93-.14,5.88-2.44Z"/><path class="cls-4" d="m118.31,142.26c-1.04-2.26-8.15-6.88-8.15-6.88,0,0-1.07,8.41-.02,10.67s3.72,3.24,5.98,2.19,3.24-3.72,2.19-5.98Z"/><line class="cls-3" x1="64.97" y1="106.22" x2="96.06" y2="137.31"/><line class="cls-3" x1="64.69" y1="136.76" x2="95.78" y2="105.68"/><line class="cls-3" x1="124.29" y1="108.24" x2="151.33" y2="135.28"/><line class="cls-3" x1="124.05" y1="134.81" x2="151.09" y2="107.76"/></g></g></svg>